SplineFontDB: 3.2
FontName: DonkeyKong
FullName: Donkey Kong
FamilyName: Donkey Kong
Weight: Medium
Copyright: 
Version: 1.00
ItalicAngle: 0
UnderlinePosition: -97.6562
UnderlineWidth: 39.0625
Ascent: 875
Descent: 125
InvalidEm: 0
LayerCount: 2
Layer: 0 0 "Back" 1
Layer: 1 0 "Fore" 0
XUID: [1021 140 1293607838 5610107]
FSType: 0
OS2Version: 0
OS2_WeightWidthSlopeOnly: 0
OS2_UseTypoMetrics: 0
CreationTime: 1697181119
ModificationTime: 1697181149
PfmFamily: 33
TTFWeight: 500
TTFWidth: 5
LineGap: 70
VLineGap: 0
Panose: 2 0 6 4 0 0 0 0 0 0
OS2TypoAscent: 0
OS2TypoAOffset: 1
OS2TypoDescent: 0
OS2TypoDOffset: 1
OS2TypoLinegap: 0
OS2WinAscent: 0
OS2WinAOffset: 1
OS2WinDescent: 0
OS2WinDOffset: 1
HheadAscent: 0
HheadAOffset: 1
HheadDescent: 0
HheadDOffset: 1
OS2Vendor: 'PfEd'
MarkAttachClasses: 1
DEI: 91125
Encoding: UnicodeBmp
Compacted: 1
UnicodeInterp: none
NameList: AGL For New Fonts
DisplaySize: -24
AntiAlias: 1
FitToEm: 1
WinInfo: 0 50 22
BeginPrivate: 0
EndPrivate
TeXData: 1 0 0 346030 173015 115343 0 1048576 115343 783286 444596 497025 792723 393216 433062 380633 303038 157286 324010 404750 52429 2506097 1059062 262144
BeginChars: 65536 125

StartChar: .notdef
Encoding: -1 -1 0
Width: 512
VWidth: 1024
Flags: HW
LayerCount: 2
Fore
SplineSet
448 640 m 25
 448 704 l 25
 64 704 l 25
 64 640 l 25
 448 640 l 25
448 576 m 25
 448 640 l 25
 320 640 l 25
 320 576 l 25
 448 576 l 25
192 576 m 25
 192 640 l 25
 64 640 l 25
 64 576 l 25
 192 576 l 25
448 512 m 25
 448 576 l 25
 384 576 l 25
 384 512 l 25
 448 512 l 25
320 512 m 25
 320 576 l 25
 192 576 l 25
 192 512 l 25
 320 512 l 25
128 512 m 25
 128 576 l 25
 64 576 l 25
 64 512 l 25
 128 512 l 25
448 448 m 25
 448 512 l 25
 384 512 l 25
 384 448 l 25
 448 448 l 25
320 448 m 25
 320 512 l 25
 192 512 l 25
 192 448 l 25
 320 448 l 25
128 448 m 25
 128 512 l 25
 64 512 l 25
 64 448 l 25
 128 448 l 25
448 384 m 25
 448 448 l 25
 384 448 l 25
 384 384 l 25
 448 384 l 25
320 384 m 25
 320 448 l 25
 64 448 l 25
 64 384 l 25
 320 384 l 25
448 320 m 25
 448 384 l 25
 320 384 l 25
 320 320 l 25
 448 320 l 25
256 320 m 25
 256 384 l 25
 64 384 l 25
 64 320 l 25
 256 320 l 25
448 256 m 25
 448 320 l 25
 320 320 l 25
 320 256 l 25
 448 256 l 25
256 256 m 25
 256 320 l 25
 64 320 l 25
 64 256 l 25
 256 256 l 25
448 192 m 25
 448 256 l 25
 64 256 l 25
 64 192 l 25
 448 192 l 25
448 128 m 25
 448 192 l 25
 320 192 l 25
 320 128 l 25
 448 128 l 25
256 128 m 25
 256 192 l 25
 64 192 l 25
 64 128 l 25
 256 128 l 25
448 64 m 25
 448 128 l 25
 320 128 l 25
 320 64 l 25
 448 64 l 25
256 64 m 25
 256 128 l 25
 64 128 l 25
 64 64 l 25
 256 64 l 25
448 0 m 25
 448 64 l 25
 64 64 l 25
 64 0 l 25
 448 0 l 25
EndSplineSet
EndChar

StartChar: uni0021
Encoding: 33 33 4
Width: 500
Flags: HW
LayerCount: 2
Fore
SplineSet
188 125 m 1
 312 125 l 1
 312 0 l 1
 188 0 l 1
 188 125 l 1
188 438 m 1
 312 438 l 1
 312 188 l 1
 188 188 l 1
 188 438 l 1
EndSplineSet
EndChar

StartChar: uni0022
Encoding: 34 34 5
Width: 500
Flags: HW
LayerCount: 2
Fore
SplineSet
188 375 m 1
 250 375 l 1
 250 250 l 1
 188 250 l 1
 188 375 l 1
312 375 m 1
 375 375 l 1
 375 250 l 1
 312 250 l 1
 312 375 l 1
EndSplineSet
EndChar

StartChar: uni0023
Encoding: 35 35 6
Width: 500
Flags: HW
LayerCount: 2
Fore
SplineSet
438 125 m 1
 375 125 l 1
 375 0 l 1
 312 0 l 1
 312 125 l 1
 250 125 l 1
 250 0 l 1
 188 0 l 1
 188 125 l 1
 125 125 l 1
 125 188 l 1
 188 188 l 1
 188 250 l 1
 125 250 l 1
 125 312 l 1
 188 312 l 1
 188 438 l 1
 250 438 l 1
 250 312 l 1
 312 312 l 1
 312 438 l 1
 375 438 l 1
 375 312 l 1
 438 312 l 1
 438 250 l 1
 375 250 l 1
 375 188 l 1
 438 188 l 1
 438 125 l 1
250 188 m 1
 312 188 l 1
 312 250 l 1
 250 250 l 1
 250 188 l 1
EndSplineSet
EndChar

StartChar: uni0024
Encoding: 36 36 7
Width: 500
Flags: HW
LayerCount: 2
Fore
SplineSet
375 312 m 1
 250 312 l 1
 250 250 l 1
 375 250 l 1
 375 188 l 1
 438 188 l 1
 438 62 l 1
 375 62 l 1
 375 0 l 1
 62 0 l 1
 62 62 l 1
 0 62 l 1
 0 125 l 1
 125 125 l 1
 125 62 l 1
 188 62 l 1
 188 188 l 1
 62 188 l 1
 62 250 l 1
 0 250 l 1
 0 375 l 1
 62 375 l 1
 62 438 l 1
 312 438 l 1
 312 375 l 1
 375 375 l 1
 375 312 l 1
250 62 m 1
 312 62 l 1
 312 188 l 1
 250 188 l 1
 250 62 l 1
125 250 m 1
 188 250 l 1
 188 375 l 1
 125 375 l 1
 125 250 l 1
EndSplineSet
EndChar

StartChar: uni0025
Encoding: 37 37 8
Width: 500
Flags: HW
LayerCount: 2
Fore
SplineSet
500 375 m 1
 438 375 l 1
 438 312 l 1
 375 312 l 1
 375 250 l 1
 438 250 l 1
 438 188 l 1
 500 188 l 1
 500 62 l 1
 438 62 l 1
 438 188 l 1
 375 188 l 1
 375 250 l 1
 312 250 l 1
 312 188 l 1
 375 188 l 1
 375 62 l 1
 438 62 l 1
 438 0 l 1
 375 0 l 1
 375 62 l 1
 312 62 l 1
 312 188 l 1
 250 188 l 1
 250 125 l 1
 188 125 l 1
 188 62 l 1
 125 62 l 1
 125 0 l 1
 0 0 l 1
 0 62 l 1
 62 62 l 1
 62 125 l 1
 125 125 l 1
 125 188 l 1
 188 188 l 1
 188 250 l 1
 250 250 l 1
 250 312 l 1
 312 312 l 1
 312 375 l 1
 375 375 l 1
 375 438 l 1
 500 438 l 1
 500 375 l 1
125 188 m 1
 62 188 l 1
 62 250 l 1
 125 250 l 1
 125 188 l 1
62 250 m 1
 0 250 l 1
 0 375 l 1
 62 375 l 1
 62 250 l 1
125 250 m 1
 125 375 l 1
 188 375 l 1
 188 250 l 1
 125 250 l 1
62 375 m 1
 62 438 l 1
 125 438 l 1
 125 375 l 1
 62 375 l 1
EndSplineSet
EndChar

StartChar: uni0026
Encoding: 38 38 9
Width: 500
Flags: HW
LayerCount: 2
Fore
SplineSet
500 125 m 1
 438 125 l 1
 438 0 l 1
 188 0 l 1
 188 62 l 1
 125 62 l 1
 125 250 l 1
 188 250 l 1
 188 312 l 1
 250 312 l 1
 250 250 l 1
 312 250 l 1
 312 188 l 1
 188 188 l 1
 188 125 l 1
 250 125 l 1
 250 62 l 1
 375 62 l 1
 375 125 l 1
 312 125 l 1
 312 188 l 1
 375 188 l 1
 375 250 l 1
 438 250 l 1
 438 188 l 1
 500 188 l 1
 500 125 l 1
312 250 m 1
 312 312 l 1
 375 312 l 1
 375 250 l 1
 312 250 l 1
250 312 m 1
 250 438 l 1
 438 438 l 1
 438 312 l 1
 375 312 l 1
 375 375 l 1
 312 375 l 1
 312 312 l 1
 250 312 l 1
EndSplineSet
EndChar

StartChar: uni0027
Encoding: 39 39 10
Width: 500
Flags: HW
LayerCount: 2
Fore
SplineSet
250 312 m 1
 188 312 l 1
 188 438 l 1
 312 438 l 1
 312 250 l 1
 250 250 l 1
 250 312 l 1
EndSplineSet
EndChar

StartChar: uni0028
Encoding: 40 40 11
Width: 500
Flags: HW
LayerCount: 2
Fore
SplineSet
375 0 m 1
 250 0 l 1
 250 62 l 1
 188 62 l 1
 188 125 l 1
 125 125 l 1
 125 312 l 1
 188 312 l 1
 188 375 l 1
 250 375 l 1
 250 438 l 1
 375 438 l 1
 375 375 l 1
 312 375 l 1
 312 312 l 1
 250 312 l 1
 250 250 l 1
 188 250 l 1
 188 188 l 1
 250 188 l 1
 250 125 l 1
 312 125 l 1
 312 62 l 1
 375 62 l 1
 375 0 l 1
EndSplineSet
EndChar

StartChar: uni0029
Encoding: 41 41 12
Width: 500
Flags: HW
LayerCount: 2
Fore
SplineSet
250 62 m 1
 250 0 l 1
 125 0 l 1
 125 62 l 1
 188 62 l 1
 188 125 l 1
 250 125 l 1
 250 188 l 1
 312 188 l 1
 312 250 l 1
 250 250 l 1
 250 312 l 1
 188 312 l 1
 188 375 l 1
 125 375 l 1
 125 438 l 1
 250 438 l 1
 250 375 l 1
 312 375 l 1
 312 312 l 1
 375 312 l 1
 375 125 l 1
 312 125 l 1
 312 62 l 1
 250 62 l 1
EndSplineSet
EndChar

StartChar: uni002A
Encoding: 42 42 13
Width: 500
Flags: HW
LayerCount: 2
Fore
SplineSet
438 62 m 1
 375 62 l 1
 375 125 l 1
 438 125 l 1
 438 62 l 1
438 188 m 1
 375 188 l 1
 375 125 l 1
 312 125 l 1
 312 62 l 1
 250 62 l 1
 250 125 l 1
 188 125 l 1
 188 62 l 1
 125 62 l 1
 125 125 l 1
 188 125 l 1
 188 188 l 1
 125 188 l 1
 125 250 l 1
 188 250 l 1
 188 312 l 1
 250 312 l 1
 250 375 l 1
 312 375 l 1
 312 312 l 1
 375 312 l 1
 375 250 l 1
 438 250 l 1
 438 188 l 1
438 312 m 1
 375 312 l 1
 375 375 l 1
 438 375 l 1
 438 312 l 1
188 312 m 1
 125 312 l 1
 125 375 l 1
 188 375 l 1
 188 312 l 1
EndSplineSet
EndChar

StartChar: uni002B
Encoding: 43 43 14
Width: 500
Flags: HW
LayerCount: 2
Fore
SplineSet
375 188 m 1
 312 188 l 1
 312 125 l 1
 250 125 l 1
 250 188 l 1
 188 188 l 1
 188 250 l 1
 250 250 l 1
 250 312 l 1
 312 312 l 1
 312 250 l 1
 375 250 l 1
 375 188 l 1
EndSplineSet
EndChar

StartChar: uni002C
Encoding: 44 44 15
Width: 500
Flags: HW
LayerCount: 2
Fore
SplineSet
188 0 m 1
 125 0 l 1
 125 125 l 1
 250 125 l 1
 250 -62 l 1
 188 -62 l 1
 188 0 l 1
EndSplineSet
EndChar

StartChar: uni002D
Encoding: 45 45 16
Width: 500
Flags: HW
LayerCount: 2
Fore
SplineSet
438 188 m 1
 62 188 l 1
 62 250 l 1
 438 250 l 1
 438 188 l 1
EndSplineSet
EndChar

StartChar: uni002E
Encoding: 46 46 17
Width: 500
Flags: HW
LayerCount: 2
Fore
SplineSet
125 125 m 1
 250 125 l 1
 250 0 l 1
 125 0 l 1
 125 125 l 1
EndSplineSet
EndChar

StartChar: uni002F
Encoding: 47 47 18
Width: 500
Flags: HW
LayerCount: 2
Fore
SplineSet
500 375 m 1
 438 375 l 1
 438 312 l 1
 375 312 l 1
 375 250 l 1
 312 250 l 1
 312 188 l 1
 250 188 l 1
 250 125 l 1
 188 125 l 1
 188 62 l 1
 125 62 l 1
 125 0 l 1
 0 0 l 1
 0 62 l 1
 62 62 l 1
 62 125 l 1
 125 125 l 1
 125 188 l 1
 188 188 l 1
 188 250 l 1
 250 250 l 1
 250 312 l 1
 312 312 l 1
 312 375 l 1
 375 375 l 1
 375 438 l 1
 500 438 l 1
 500 375 l 1
EndSplineSet
EndChar

StartChar: uni0030
Encoding: 48 48 19
Width: 500
Flags: HW
LayerCount: 2
Fore
SplineSet
188 62 m 1
 125 62 l 1
 125 125 l 1
 62 125 l 1
 62 312 l 1
 125 312 l 1
 125 375 l 1
 188 375 l 1
 188 125 l 1
 250 125 l 1
 250 62 l 1
 375 62 l 1
 375 0 l 1
 188 0 l 1
 188 62 l 1
375 62 m 1
 375 312 l 1
 312 312 l 1
 312 375 l 1
 188 375 l 1
 188 438 l 1
 375 438 l 1
 375 375 l 1
 438 375 l 1
 438 312 l 1
 500 312 l 1
 500 125 l 1
 438 125 l 1
 438 62 l 1
 375 62 l 1
EndSplineSet
EndChar

StartChar: uni0031
Encoding: 49 49 20
Width: 500
Flags: HW
LayerCount: 2
Fore
SplineSet
500 0 m 1
 125 0 l 1
 125 62 l 1
 250 62 l 1
 250 312 l 1
 188 312 l 1
 188 375 l 1
 250 375 l 1
 250 438 l 1
 375 438 l 1
 375 62 l 1
 500 62 l 1
 500 0 l 1
EndSplineSet
EndChar

StartChar: uni0032
Encoding: 50 50 21
Width: 500
Flags: HW
LayerCount: 2
Fore
SplineSet
500 0 m 1
 62 0 l 1
 62 125 l 1
 125 125 l 1
 125 188 l 1
 188 188 l 1
 188 250 l 1
 312 250 l 1
 312 312 l 1
 375 312 l 1
 375 375 l 1
 188 375 l 1
 188 312 l 1
 62 312 l 1
 62 375 l 1
 125 375 l 1
 125 438 l 1
 438 438 l 1
 438 375 l 1
 500 375 l 1
 500 250 l 1
 438 250 l 1
 438 188 l 1
 375 188 l 1
 375 125 l 1
 312 125 l 1
 312 62 l 1
 500 62 l 1
 500 0 l 1
EndSplineSet
EndChar

StartChar: uni0033
Encoding: 51 51 22
Width: 500
Flags: HW
LayerCount: 2
Fore
SplineSet
500 375 m 1
 438 375 l 1
 438 312 l 1
 375 312 l 1
 375 250 l 1
 438 250 l 1
 438 188 l 1
 500 188 l 1
 500 62 l 1
 438 62 l 1
 438 0 l 1
 125 0 l 1
 125 62 l 1
 62 62 l 1
 62 125 l 1
 188 125 l 1
 188 62 l 1
 375 62 l 1
 375 188 l 1
 188 188 l 1
 188 250 l 1
 250 250 l 1
 250 312 l 1
 312 312 l 1
 312 375 l 1
 125 375 l 1
 125 438 l 1
 500 438 l 1
 500 375 l 1
EndSplineSet
EndChar

StartChar: uni0034
Encoding: 52 52 23
Width: 500
Flags: HW
LayerCount: 2
Fore
SplineSet
500 125 m 1
 438 125 l 1
 438 0 l 1
 312 0 l 1
 312 125 l 1
 62 125 l 1
 62 250 l 1
 125 250 l 1
 125 312 l 1
 188 312 l 1
 188 375 l 1
 250 375 l 1
 250 438 l 1
 438 438 l 1
 438 188 l 1
 500 188 l 1
 500 125 l 1
188 188 m 1
 312 188 l 1
 312 312 l 1
 250 312 l 1
 250 250 l 1
 188 250 l 1
 188 188 l 1
EndSplineSet
EndChar

StartChar: uni0035
Encoding: 53 53 24
Width: 500
Flags: HW
LayerCount: 2
Fore
SplineSet
438 375 m 1
 188 375 l 1
 188 312 l 1
 438 312 l 1
 438 250 l 1
 500 250 l 1
 500 62 l 1
 438 62 l 1
 438 0 l 1
 125 0 l 1
 125 62 l 1
 62 62 l 1
 62 125 l 1
 188 125 l 1
 188 62 l 1
 375 62 l 1
 375 250 l 1
 62 250 l 1
 62 438 l 1
 438 438 l 1
 438 375 l 1
EndSplineSet
EndChar

StartChar: uni0036
Encoding: 54 54 25
Width: 500
Flags: HW
LayerCount: 2
Fore
SplineSet
438 375 m 1
 250 375 l 1
 250 312 l 1
 188 312 l 1
 188 250 l 1
 438 250 l 1
 438 188 l 1
 500 188 l 1
 500 62 l 1
 438 62 l 1
 438 0 l 1
 125 0 l 1
 125 62 l 1
 62 62 l 1
 62 312 l 1
 125 312 l 1
 125 375 l 1
 188 375 l 1
 188 438 l 1
 438 438 l 1
 438 375 l 1
188 62 m 1
 375 62 l 1
 375 188 l 1
 188 188 l 1
 188 62 l 1
EndSplineSet
EndChar

StartChar: uni0037
Encoding: 55 55 26
Width: 500
Flags: HW
LayerCount: 2
Fore
SplineSet
188 188 m 1
 250 188 l 1
 250 250 l 1
 312 250 l 1
 312 312 l 1
 375 312 l 1
 375 375 l 1
 188 375 l 1
 188 312 l 1
 62 312 l 1
 62 438 l 1
 500 438 l 1
 500 312 l 1
 438 312 l 1
 438 250 l 1
 375 250 l 1
 375 188 l 1
 312 188 l 1
 312 0 l 1
 188 0 l 1
 188 188 l 1
EndSplineSet
EndChar

StartChar: uni0038
Encoding: 56 56 27
Width: 500
Flags: HW
LayerCount: 2
Fore
SplineSet
125 62 m 1
 62 62 l 1
 62 188 l 1
 125 188 l 1
 125 250 l 1
 62 250 l 1
 62 375 l 1
 125 375 l 1
 125 438 l 1
 375 438 l 1
 375 375 l 1
 438 375 l 1
 438 250 l 1
 375 250 l 1
 375 375 l 1
 188 375 l 1
 188 312 l 1
 250 312 l 1
 250 250 l 1
 375 250 l 1
 375 188 l 1
 500 188 l 1
 500 62 l 1
 438 62 l 1
 438 0 l 1
 125 0 l 1
 125 62 l 1
125 62 m 1
 375 62 l 1
 375 125 l 1
 250 125 l 1
 250 188 l 1
 125 188 l 1
 125 62 l 1
EndSplineSet
EndChar

StartChar: uni0039
Encoding: 57 57 28
Width: 500
Flags: HW
LayerCount: 2
Fore
SplineSet
375 62 m 1
 375 0 l 1
 125 0 l 1
 125 62 l 1
 312 62 l 1
 312 125 l 1
 375 125 l 1
 375 188 l 1
 125 188 l 1
 125 250 l 1
 62 250 l 1
 62 375 l 1
 125 375 l 1
 125 438 l 1
 438 438 l 1
 438 375 l 1
 500 375 l 1
 500 125 l 1
 438 125 l 1
 438 62 l 1
 375 62 l 1
188 250 m 1
 375 250 l 1
 375 375 l 1
 188 375 l 1
 188 250 l 1
EndSplineSet
EndChar

StartChar: uni003A
Encoding: 58 58 29
Width: 500
Flags: HW
LayerCount: 2
Fore
SplineSet
250 125 m 1
 188 125 l 1
 188 188 l 1
 250 188 l 1
 250 125 l 1
250 250 m 1
 188 250 l 1
 188 312 l 1
 250 312 l 1
 250 250 l 1
EndSplineSet
EndChar

StartChar: uni003B
Encoding: 59 59 30
Width: 500
Flags: HW
LayerCount: 2
Fore
SplineSet
250 125 m 1
 188 125 l 1
 188 62 l 1
 125 62 l 1
 125 125 l 1
 188 125 l 1
 188 188 l 1
 250 188 l 1
 250 125 l 1
250 250 m 1
 188 250 l 1
 188 312 l 1
 250 312 l 1
 250 250 l 1
EndSplineSet
EndChar

StartChar: uni003C
Encoding: 60 60 31
Width: 500
Flags: HW
LayerCount: 2
Fore
SplineSet
375 0 m 1
 250 0 l 1
 250 62 l 1
 188 62 l 1
 188 125 l 1
 125 125 l 1
 125 188 l 1
 62 188 l 1
 62 250 l 1
 125 250 l 1
 125 312 l 1
 188 312 l 1
 188 375 l 1
 250 375 l 1
 250 438 l 1
 375 438 l 1
 375 375 l 1
 312 375 l 1
 312 312 l 1
 250 312 l 1
 250 250 l 1
 188 250 l 1
 188 188 l 1
 250 188 l 1
 250 125 l 1
 312 125 l 1
 312 62 l 1
 375 62 l 1
 375 0 l 1
EndSplineSet
EndChar

StartChar: uni003D
Encoding: 61 61 32
Width: 500
Flags: HW
LayerCount: 2
Fore
SplineSet
438 125 m 1
 62 125 l 1
 62 188 l 1
 438 188 l 1
 438 125 l 1
438 250 m 1
 62 250 l 1
 62 312 l 1
 438 312 l 1
 438 250 l 1
EndSplineSet
EndChar

StartChar: uni003E
Encoding: 62 62 33
Width: 500
Flags: HW
LayerCount: 2
Fore
SplineSet
438 188 m 1
 375 188 l 1
 375 125 l 1
 312 125 l 1
 312 62 l 1
 250 62 l 1
 250 0 l 1
 125 0 l 1
 125 62 l 1
 188 62 l 1
 188 125 l 1
 250 125 l 1
 250 188 l 1
 312 188 l 1
 312 250 l 1
 250 250 l 1
 250 312 l 1
 188 312 l 1
 188 375 l 1
 125 375 l 1
 125 438 l 1
 250 438 l 1
 250 375 l 1
 312 375 l 1
 312 312 l 1
 375 312 l 1
 375 250 l 1
 438 250 l 1
 438 188 l 1
EndSplineSet
EndChar

StartChar: uni003F
Encoding: 63 63 34
Width: 500
Flags: HW
LayerCount: 2
Fore
SplineSet
250 0 m 1
 188 0 l 1
 188 62 l 1
 250 62 l 1
 250 0 l 1
250 188 m 1
 250 125 l 1
 188 125 l 1
 188 188 l 1
 250 188 l 1
250 188 m 1
 250 250 l 1
 375 250 l 1
 375 188 l 1
 250 188 l 1
375 250 m 1
 375 375 l 1
 438 375 l 1
 438 250 l 1
 375 250 l 1
125 375 m 1
 125 312 l 1
 62 312 l 1
 62 375 l 1
 125 375 l 1
125 375 m 1
 125 438 l 1
 375 438 l 1
 375 375 l 1
 125 375 l 1
EndSplineSet
EndChar

StartChar: uni0040
Encoding: 64 64 35
Width: 500
Flags: HW
LayerCount: 2
Fore
SplineSet
375 0 m 1
 125 0 l 1
 125 62 l 1
 62 62 l 1
 62 375 l 1
 125 375 l 1
 125 438 l 1
 438 438 l 1
 438 375 l 1
 500 375 l 1
 500 125 l 1
 375 125 l 1
 375 250 l 1
 312 250 l 1
 312 125 l 1
 250 125 l 1
 250 250 l 1
 312 250 l 1
 312 312 l 1
 375 312 l 1
 375 375 l 1
 188 375 l 1
 188 62 l 1
 375 62 l 1
 375 0 l 1
EndSplineSet
EndChar

StartChar: uni0041
Encoding: 65 65 36
Width: 500
Flags: HW
LayerCount: 2
Fore
SplineSet
62 312 m 1
 125 312 l 1
 125 375 l 1
 188 375 l 1
 188 438 l 1
 375 438 l 1
 375 375 l 1
 438 375 l 1
 438 312 l 1
 500 312 l 1
 500 0 l 1
 375 0 l 1
 375 125 l 1
 188 125 l 1
 188 0 l 1
 62 0 l 1
 62 312 l 1
188 188 m 1
 375 188 l 1
 375 312 l 1
 312 312 l 1
 312 375 l 1
 250 375 l 1
 250 312 l 1
 188 312 l 1
 188 188 l 1
EndSplineSet
EndChar

StartChar: uni0042
Encoding: 66 66 37
Width: 500
Flags: HW
LayerCount: 2
Fore
SplineSet
62 438 m 1
 438 438 l 1
 438 375 l 1
 500 375 l 1
 500 250 l 1
 438 250 l 1
 438 188 l 1
 500 188 l 1
 500 62 l 1
 438 62 l 1
 438 0 l 1
 62 0 l 1
 62 438 l 1
188 62 m 1
 375 62 l 1
 375 188 l 1
 188 188 l 1
 188 62 l 1
188 250 m 1
 375 250 l 1
 375 375 l 1
 188 375 l 1
 188 250 l 1
EndSplineSet
EndChar

StartChar: uni0043
Encoding: 67 67 38
Width: 500
Flags: HW
LayerCount: 2
Fore
SplineSet
500 62 m 1
 438 62 l 1
 438 0 l 1
 188 0 l 1
 188 62 l 1
 125 62 l 1
 125 125 l 1
 62 125 l 1
 62 312 l 1
 125 312 l 1
 125 375 l 1
 188 375 l 1
 188 438 l 1
 438 438 l 1
 438 375 l 1
 500 375 l 1
 500 312 l 1
 375 312 l 1
 375 375 l 1
 250 375 l 1
 250 312 l 1
 188 312 l 1
 188 125 l 1
 250 125 l 1
 250 62 l 1
 375 62 l 1
 375 125 l 1
 500 125 l 1
 500 62 l 1
EndSplineSet
EndChar

StartChar: uni0044
Encoding: 68 68 39
Width: 500
Flags: HW
LayerCount: 2
Fore
SplineSet
62 438 m 1
 375 438 l 1
 375 375 l 1
 438 375 l 1
 438 312 l 1
 500 312 l 1
 500 125 l 1
 438 125 l 1
 438 62 l 1
 375 62 l 1
 375 0 l 1
 62 0 l 1
 62 438 l 1
188 62 m 1
 312 62 l 1
 312 125 l 1
 375 125 l 1
 375 312 l 1
 312 312 l 1
 312 375 l 1
 188 375 l 1
 188 62 l 1
EndSplineSet
EndChar

StartChar: uni0045
Encoding: 69 69 40
Width: 500
Flags: HW
LayerCount: 2
Fore
SplineSet
500 0 m 1
 125 0 l 1
 125 438 l 1
 500 438 l 1
 500 375 l 1
 250 375 l 1
 250 250 l 1
 438 250 l 1
 438 188 l 1
 250 188 l 1
 250 62 l 1
 500 62 l 1
 500 0 l 1
EndSplineSet
EndChar

StartChar: uni0046
Encoding: 70 70 41
Width: 500
Flags: HW
LayerCount: 2
Fore
SplineSet
438 188 m 1
 188 188 l 1
 188 0 l 1
 62 0 l 1
 62 438 l 1
 500 438 l 1
 500 375 l 1
 188 375 l 1
 188 250 l 1
 438 250 l 1
 438 188 l 1
EndSplineSet
EndChar

StartChar: uni0047
Encoding: 71 71 42
Width: 500
Flags: HW
LayerCount: 2
Fore
SplineSet
500 375 m 1
 250 375 l 1
 250 312 l 1
 188 312 l 1
 188 125 l 1
 250 125 l 1
 250 62 l 1
 375 62 l 1
 375 188 l 1
 312 188 l 1
 312 250 l 1
 500 250 l 1
 500 0 l 1
 188 0 l 1
 188 62 l 1
 125 62 l 1
 125 125 l 1
 62 125 l 1
 62 312 l 1
 125 312 l 1
 125 375 l 1
 188 375 l 1
 188 438 l 1
 500 438 l 1
 500 375 l 1
EndSplineSet
EndChar

StartChar: uni0048
Encoding: 72 72 43
Width: 500
Flags: HW
LayerCount: 2
Fore
SplineSet
62 438 m 1
 188 438 l 1
 188 250 l 1
 375 250 l 1
 375 438 l 1
 500 438 l 1
 500 0 l 1
 375 0 l 1
 375 188 l 1
 188 188 l 1
 188 0 l 1
 62 0 l 1
 62 438 l 1
EndSplineSet
EndChar

StartChar: uni0049
Encoding: 73 73 44
Width: 500
Flags: HW
LayerCount: 2
Fore
SplineSet
500 0 m 1
 125 0 l 1
 125 62 l 1
 250 62 l 1
 250 375 l 1
 125 375 l 1
 125 438 l 1
 500 438 l 1
 500 375 l 1
 375 375 l 1
 375 62 l 1
 500 62 l 1
 500 0 l 1
EndSplineSet
EndChar

StartChar: uni004A
Encoding: 74 74 45
Width: 500
Flags: HW
LayerCount: 2
Fore
SplineSet
125 62 m 1
 62 62 l 1
 62 125 l 1
 188 125 l 1
 188 62 l 1
 375 62 l 1
 375 438 l 1
 500 438 l 1
 500 62 l 1
 438 62 l 1
 438 0 l 1
 125 0 l 1
 125 62 l 1
EndSplineSet
EndChar

StartChar: uni004B
Encoding: 75 75 46
Width: 500
Flags: HW
LayerCount: 2
Fore
SplineSet
500 0 m 1
 312 0 l 1
 312 62 l 1
 250 62 l 1
 250 125 l 1
 188 125 l 1
 188 0 l 1
 62 0 l 1
 62 438 l 1
 188 438 l 1
 188 250 l 1
 250 250 l 1
 250 312 l 1
 312 312 l 1
 312 375 l 1
 375 375 l 1
 375 438 l 1
 500 438 l 1
 500 375 l 1
 438 375 l 1
 438 312 l 1
 375 312 l 1
 375 250 l 1
 312 250 l 1
 312 188 l 1
 375 188 l 1
 375 125 l 1
 438 125 l 1
 438 62 l 1
 500 62 l 1
 500 0 l 1
EndSplineSet
EndChar

StartChar: uni004C
Encoding: 76 76 47
Width: 500
Flags: HW
LayerCount: 2
Fore
SplineSet
500 0 m 1
 125 0 l 1
 125 438 l 1
 250 438 l 1
 250 62 l 1
 500 62 l 1
 500 0 l 1
EndSplineSet
EndChar

StartChar: uni004D
Encoding: 77 77 48
Width: 500
Flags: HW
LayerCount: 2
Fore
SplineSet
62 438 m 1
 188 438 l 1
 188 375 l 1
 250 375 l 1
 250 312 l 1
 312 312 l 1
 312 375 l 1
 375 375 l 1
 375 438 l 1
 500 438 l 1
 500 0 l 1
 375 0 l 1
 375 188 l 1
 312 188 l 1
 312 125 l 1
 250 125 l 1
 250 188 l 1
 188 188 l 1
 188 0 l 1
 62 0 l 1
 62 438 l 1
EndSplineSet
EndChar

StartChar: uni004E
Encoding: 78 78 49
Width: 500
Flags: HW
LayerCount: 2
Fore
SplineSet
62 438 m 1
 188 438 l 1
 188 375 l 1
 250 375 l 1
 250 312 l 1
 312 312 l 1
 312 250 l 1
 375 250 l 1
 375 438 l 1
 500 438 l 1
 500 0 l 1
 375 0 l 1
 375 62 l 1
 312 62 l 1
 312 125 l 1
 250 125 l 1
 250 188 l 1
 188 188 l 1
 188 0 l 1
 62 0 l 1
 62 438 l 1
EndSplineSet
EndChar

StartChar: uni004F
Encoding: 79 79 50
Width: 500
Flags: HW
LayerCount: 2
Fore
SplineSet
125 62 m 1
 62 62 l 1
 62 375 l 1
 125 375 l 1
 125 438 l 1
 438 438 l 1
 438 375 l 1
 500 375 l 1
 500 62 l 1
 438 62 l 1
 438 0 l 1
 125 0 l 1
 125 62 l 1
188 62 m 1
 375 62 l 1
 375 375 l 1
 188 375 l 1
 188 62 l 1
EndSplineSet
EndChar

StartChar: uni0050
Encoding: 80 80 51
Width: 500
Flags: HW
LayerCount: 2
Fore
SplineSet
62 438 m 1
 438 438 l 1
 438 375 l 1
 500 375 l 1
 500 188 l 1
 438 188 l 1
 438 125 l 1
 188 125 l 1
 188 0 l 1
 62 0 l 1
 62 438 l 1
188 188 m 1
 375 188 l 1
 375 375 l 1
 188 375 l 1
 188 188 l 1
EndSplineSet
EndChar

StartChar: uni0051
Encoding: 81 81 52
Width: 500
Flags: HW
LayerCount: 2
Fore
SplineSet
500 0 m 1
 438 0 l 1
 438 62 l 1
 500 62 l 1
 500 0 l 1
125 62 m 1
 62 62 l 1
 62 375 l 1
 125 375 l 1
 125 438 l 1
 438 438 l 1
 438 375 l 1
 500 375 l 1
 500 125 l 1
 438 125 l 1
 438 62 l 1
 375 62 l 1
 375 0 l 1
 125 0 l 1
 125 62 l 1
188 62 m 1
 312 62 l 1
 312 125 l 1
 250 125 l 1
 250 188 l 1
 375 188 l 1
 375 375 l 1
 188 375 l 1
 188 62 l 1
EndSplineSet
EndChar

StartChar: uni0052
Encoding: 82 82 53
Width: 500
Flags: HW
LayerCount: 2
Fore
SplineSet
500 0 m 1
 312 0 l 1
 312 62 l 1
 250 62 l 1
 250 125 l 1
 188 125 l 1
 188 0 l 1
 62 0 l 1
 62 438 l 1
 438 438 l 1
 438 375 l 1
 500 375 l 1
 500 188 l 1
 375 188 l 1
 375 125 l 1
 438 125 l 1
 438 62 l 1
 500 62 l 1
 500 0 l 1
188 188 m 1
 312 188 l 1
 312 250 l 1
 375 250 l 1
 375 375 l 1
 188 375 l 1
 188 188 l 1
EndSplineSet
EndChar

StartChar: uni0053
Encoding: 83 83 54
Width: 500
Flags: HW
LayerCount: 2
Fore
SplineSet
438 312 m 1
 312 312 l 1
 312 375 l 1
 188 375 l 1
 188 250 l 1
 438 250 l 1
 438 188 l 1
 500 188 l 1
 500 62 l 1
 438 62 l 1
 438 0 l 1
 125 0 l 1
 125 62 l 1
 62 62 l 1
 62 125 l 1
 188 125 l 1
 188 62 l 1
 375 62 l 1
 375 188 l 1
 125 188 l 1
 125 250 l 1
 62 250 l 1
 62 375 l 1
 125 375 l 1
 125 438 l 1
 375 438 l 1
 375 375 l 1
 438 375 l 1
 438 312 l 1
EndSplineSet
EndChar

StartChar: uni0054
Encoding: 84 84 55
Width: 500
Flags: HW
LayerCount: 2
Fore
SplineSet
500 375 m 1
 375 375 l 1
 375 0 l 1
 250 0 l 1
 250 375 l 1
 125 375 l 1
 125 438 l 1
 500 438 l 1
 500 375 l 1
EndSplineSet
EndChar

StartChar: uni0055
Encoding: 85 85 56
Width: 500
Flags: HW
LayerCount: 2
Fore
SplineSet
125 62 m 1
 62 62 l 1
 62 438 l 1
 188 438 l 1
 188 62 l 1
 375 62 l 1
 375 438 l 1
 500 438 l 1
 500 62 l 1
 438 62 l 1
 438 0 l 1
 125 0 l 1
 125 62 l 1
EndSplineSet
EndChar

StartChar: uni0056
Encoding: 86 86 57
Width: 500
Flags: HW
LayerCount: 2
Fore
SplineSet
312 62 m 1
 312 0 l 1
 250 0 l 1
 250 62 l 1
 188 62 l 1
 188 125 l 1
 125 125 l 1
 125 188 l 1
 62 188 l 1
 62 438 l 1
 188 438 l 1
 188 250 l 1
 250 250 l 1
 250 188 l 1
 312 188 l 1
 312 250 l 1
 375 250 l 1
 375 438 l 1
 500 438 l 1
 500 188 l 1
 438 188 l 1
 438 125 l 1
 375 125 l 1
 375 62 l 1
 312 62 l 1
EndSplineSet
EndChar

StartChar: uni0057
Encoding: 87 87 58
Width: 500
Flags: HW
LayerCount: 2
Fore
SplineSet
188 62 m 1
 188 0 l 1
 125 0 l 1
 125 125 l 1
 62 125 l 1
 62 438 l 1
 188 438 l 1
 188 250 l 1
 250 250 l 1
 250 312 l 1
 312 312 l 1
 312 250 l 1
 375 250 l 1
 375 438 l 1
 500 438 l 1
 500 125 l 1
 438 125 l 1
 438 0 l 1
 375 0 l 1
 375 62 l 1
 312 62 l 1
 312 125 l 1
 250 125 l 1
 250 62 l 1
 188 62 l 1
EndSplineSet
EndChar

StartChar: uni0058
Encoding: 88 88 59
Width: 500
Flags: HW
LayerCount: 2
Fore
SplineSet
188 62 m 1
 188 0 l 1
 62 0 l 1
 62 125 l 1
 125 125 l 1
 125 188 l 1
 188 188 l 1
 188 250 l 1
 125 250 l 1
 125 312 l 1
 62 312 l 1
 62 438 l 1
 188 438 l 1
 188 375 l 1
 250 375 l 1
 250 312 l 1
 312 312 l 1
 312 375 l 1
 375 375 l 1
 375 438 l 1
 500 438 l 1
 500 312 l 1
 438 312 l 1
 438 250 l 1
 375 250 l 1
 375 188 l 1
 438 188 l 1
 438 125 l 1
 500 125 l 1
 500 0 l 1
 375 0 l 1
 375 62 l 1
 312 62 l 1
 312 125 l 1
 250 125 l 1
 250 62 l 1
 188 62 l 1
EndSplineSet
EndChar

StartChar: uni0059
Encoding: 89 89 60
Width: 500
Flags: HW
LayerCount: 2
Fore
SplineSet
250 188 m 1
 188 188 l 1
 188 312 l 1
 125 312 l 1
 125 438 l 1
 250 438 l 1
 250 250 l 1
 375 250 l 1
 375 438 l 1
 500 438 l 1
 500 312 l 1
 438 312 l 1
 438 188 l 1
 375 188 l 1
 375 0 l 1
 250 0 l 1
 250 188 l 1
EndSplineSet
EndChar

StartChar: uni005A
Encoding: 90 90 61
Width: 500
Flags: HW
LayerCount: 2
Fore
SplineSet
500 0 m 1
 62 0 l 1
 62 125 l 1
 125 125 l 1
 125 188 l 1
 188 188 l 1
 188 250 l 1
 250 250 l 1
 250 312 l 1
 312 312 l 1
 312 375 l 1
 62 375 l 1
 62 438 l 1
 500 438 l 1
 500 312 l 1
 438 312 l 1
 438 250 l 1
 375 250 l 1
 375 188 l 1
 312 188 l 1
 312 125 l 1
 250 125 l 1
 250 62 l 1
 500 62 l 1
 500 0 l 1
EndSplineSet
EndChar

StartChar: uni005B
Encoding: 91 91 62
Width: 500
Flags: HW
LayerCount: 2
Fore
SplineSet
375 0 m 1
 125 0 l 1
 125 438 l 1
 375 438 l 1
 375 375 l 1
 250 375 l 1
 250 62 l 1
 375 62 l 1
 375 0 l 1
EndSplineSet
EndChar

StartChar: uni005C
Encoding: 92 92 63
Width: 500
Flags: HW
LayerCount: 2
Fore
SplineSet
500 0 m 1
 375 0 l 1
 375 62 l 1
 312 62 l 1
 312 125 l 1
 250 125 l 1
 250 188 l 1
 188 188 l 1
 188 250 l 1
 125 250 l 1
 125 312 l 1
 62 312 l 1
 62 375 l 1
 0 375 l 1
 0 438 l 1
 125 438 l 1
 125 375 l 1
 188 375 l 1
 188 312 l 1
 250 312 l 1
 250 250 l 1
 312 250 l 1
 312 188 l 1
 375 188 l 1
 375 125 l 1
 438 125 l 1
 438 62 l 1
 500 62 l 1
 500 0 l 1
EndSplineSet
EndChar

StartChar: uni005D
Encoding: 93 93 64
Width: 500
Flags: HW
LayerCount: 2
Fore
SplineSet
250 62 m 1
 250 375 l 1
 125 375 l 1
 125 438 l 1
 375 438 l 1
 375 0 l 1
 125 0 l 1
 125 62 l 1
 250 62 l 1
EndSplineSet
EndChar

StartChar: uni005E
Encoding: 94 94 65
Width: 500
Flags: HW
LayerCount: 2
Fore
SplineSet
188 250 m 1
 188 188 l 1
 125 188 l 1
 125 312 l 1
 188 312 l 1
 188 375 l 1
 250 375 l 1
 250 438 l 1
 312 438 l 1
 312 375 l 1
 375 375 l 1
 375 312 l 1
 438 312 l 1
 438 188 l 1
 375 188 l 1
 375 250 l 1
 312 250 l 1
 312 312 l 1
 250 312 l 1
 250 250 l 1
 188 250 l 1
EndSplineSet
EndChar

StartChar: uni005F
Encoding: 95 95 66
Width: 500
Flags: HW
LayerCount: 2
Fore
SplineSet
438 0 m 1
 62 0 l 1
 62 62 l 1
 438 62 l 1
 438 0 l 1
EndSplineSet
EndChar

StartChar: uni0060
Encoding: 96 96 67
Width: 500
Flags: HW
LayerCount: 2
Fore
SplineSet
250 312 m 1
 250 250 l 1
 188 250 l 1
 188 438 l 1
 312 438 l 1
 312 312 l 1
 250 312 l 1
EndSplineSet
EndChar

StartChar: uni0061
Encoding: 97 97 68
Width: 500
Flags: HW
LayerCount: 2
Fore
SplineSet
62 312 m 1
 125 312 l 1
 125 375 l 1
 188 375 l 1
 188 438 l 1
 375 438 l 1
 375 375 l 1
 438 375 l 1
 438 312 l 1
 500 312 l 1
 500 0 l 1
 375 0 l 1
 375 125 l 1
 188 125 l 1
 188 0 l 1
 62 0 l 1
 62 312 l 1
188 188 m 1
 375 188 l 1
 375 312 l 1
 312 312 l 1
 312 375 l 1
 250 375 l 1
 250 312 l 1
 188 312 l 1
 188 188 l 1
EndSplineSet
EndChar

StartChar: uni0062
Encoding: 98 98 69
Width: 500
Flags: HW
LayerCount: 2
Fore
SplineSet
62 438 m 1
 438 438 l 1
 438 375 l 1
 500 375 l 1
 500 250 l 1
 438 250 l 1
 438 188 l 1
 500 188 l 1
 500 62 l 1
 438 62 l 1
 438 0 l 1
 62 0 l 1
 62 438 l 1
188 62 m 1
 375 62 l 1
 375 188 l 1
 188 188 l 1
 188 62 l 1
188 250 m 1
 375 250 l 1
 375 375 l 1
 188 375 l 1
 188 250 l 1
EndSplineSet
EndChar

StartChar: uni0063
Encoding: 99 99 70
Width: 500
Flags: HW
LayerCount: 2
Fore
SplineSet
500 62 m 1
 438 62 l 1
 438 0 l 1
 188 0 l 1
 188 62 l 1
 125 62 l 1
 125 125 l 1
 62 125 l 1
 62 312 l 1
 125 312 l 1
 125 375 l 1
 188 375 l 1
 188 438 l 1
 438 438 l 1
 438 375 l 1
 500 375 l 1
 500 312 l 1
 375 312 l 1
 375 375 l 1
 250 375 l 1
 250 312 l 1
 188 312 l 1
 188 125 l 1
 250 125 l 1
 250 62 l 1
 375 62 l 1
 375 125 l 1
 500 125 l 1
 500 62 l 1
EndSplineSet
EndChar

StartChar: uni0064
Encoding: 100 100 71
Width: 500
Flags: HW
LayerCount: 2
Fore
SplineSet
62 438 m 1
 375 438 l 1
 375 375 l 1
 438 375 l 1
 438 312 l 1
 500 312 l 1
 500 125 l 1
 438 125 l 1
 438 62 l 1
 375 62 l 1
 375 0 l 1
 62 0 l 1
 62 438 l 1
188 62 m 1
 312 62 l 1
 312 125 l 1
 375 125 l 1
 375 312 l 1
 312 312 l 1
 312 375 l 1
 188 375 l 1
 188 62 l 1
EndSplineSet
EndChar

StartChar: uni0065
Encoding: 101 101 72
Width: 500
Flags: HW
LayerCount: 2
Fore
SplineSet
500 0 m 1
 125 0 l 1
 125 438 l 1
 500 438 l 1
 500 375 l 1
 250 375 l 1
 250 250 l 1
 438 250 l 1
 438 188 l 1
 250 188 l 1
 250 62 l 1
 500 62 l 1
 500 0 l 1
EndSplineSet
EndChar

StartChar: uni0066
Encoding: 102 102 73
Width: 500
Flags: HW
LayerCount: 2
Fore
SplineSet
438 188 m 1
 188 188 l 1
 188 0 l 1
 62 0 l 1
 62 438 l 1
 500 438 l 1
 500 375 l 1
 188 375 l 1
 188 250 l 1
 438 250 l 1
 438 188 l 1
EndSplineSet
EndChar

StartChar: uni0067
Encoding: 103 103 74
Width: 500
Flags: HW
LayerCount: 2
Fore
SplineSet
500 375 m 1
 250 375 l 1
 250 312 l 1
 188 312 l 1
 188 125 l 1
 250 125 l 1
 250 62 l 1
 375 62 l 1
 375 188 l 1
 312 188 l 1
 312 250 l 1
 500 250 l 1
 500 0 l 1
 188 0 l 1
 188 62 l 1
 125 62 l 1
 125 125 l 1
 62 125 l 1
 62 312 l 1
 125 312 l 1
 125 375 l 1
 188 375 l 1
 188 438 l 1
 500 438 l 1
 500 375 l 1
EndSplineSet
EndChar

StartChar: uni0068
Encoding: 104 104 75
Width: 500
Flags: HW
LayerCount: 2
Fore
SplineSet
62 438 m 1
 188 438 l 1
 188 250 l 1
 375 250 l 1
 375 438 l 1
 500 438 l 1
 500 0 l 1
 375 0 l 1
 375 188 l 1
 188 188 l 1
 188 0 l 1
 62 0 l 1
 62 438 l 1
EndSplineSet
EndChar

StartChar: uni0069
Encoding: 105 105 76
Width: 500
Flags: HW
LayerCount: 2
Fore
SplineSet
500 0 m 1
 125 0 l 1
 125 62 l 1
 250 62 l 1
 250 375 l 1
 125 375 l 1
 125 438 l 1
 500 438 l 1
 500 375 l 1
 375 375 l 1
 375 62 l 1
 500 62 l 1
 500 0 l 1
EndSplineSet
EndChar

StartChar: uni006A
Encoding: 106 106 77
Width: 500
Flags: HW
LayerCount: 2
Fore
SplineSet
125 62 m 1
 62 62 l 1
 62 125 l 1
 188 125 l 1
 188 62 l 1
 375 62 l 1
 375 438 l 1
 500 438 l 1
 500 62 l 1
 438 62 l 1
 438 0 l 1
 125 0 l 1
 125 62 l 1
EndSplineSet
EndChar

StartChar: uni006B
Encoding: 107 107 78
Width: 500
Flags: HW
LayerCount: 2
Fore
SplineSet
500 0 m 1
 312 0 l 1
 312 62 l 1
 250 62 l 1
 250 125 l 1
 188 125 l 1
 188 0 l 1
 62 0 l 1
 62 438 l 1
 188 438 l 1
 188 250 l 1
 250 250 l 1
 250 312 l 1
 312 312 l 1
 312 375 l 1
 375 375 l 1
 375 438 l 1
 500 438 l 1
 500 375 l 1
 438 375 l 1
 438 312 l 1
 375 312 l 1
 375 250 l 1
 312 250 l 1
 312 188 l 1
 375 188 l 1
 375 125 l 1
 438 125 l 1
 438 62 l 1
 500 62 l 1
 500 0 l 1
EndSplineSet
EndChar

StartChar: uni006C
Encoding: 108 108 79
Width: 500
Flags: HW
LayerCount: 2
Fore
SplineSet
500 0 m 1
 125 0 l 1
 125 438 l 1
 250 438 l 1
 250 62 l 1
 500 62 l 1
 500 0 l 1
EndSplineSet
EndChar

StartChar: uni006D
Encoding: 109 109 80
Width: 500
Flags: HW
LayerCount: 2
Fore
SplineSet
62 438 m 1
 188 438 l 1
 188 375 l 1
 250 375 l 1
 250 312 l 1
 312 312 l 1
 312 375 l 1
 375 375 l 1
 375 438 l 1
 500 438 l 1
 500 0 l 1
 375 0 l 1
 375 188 l 1
 312 188 l 1
 312 125 l 1
 250 125 l 1
 250 188 l 1
 188 188 l 1
 188 0 l 1
 62 0 l 1
 62 438 l 1
EndSplineSet
EndChar

StartChar: uni006E
Encoding: 110 110 81
Width: 500
Flags: HW
LayerCount: 2
Fore
SplineSet
62 438 m 1
 188 438 l 1
 188 375 l 1
 250 375 l 1
 250 312 l 1
 312 312 l 1
 312 250 l 1
 375 250 l 1
 375 438 l 1
 500 438 l 1
 500 0 l 1
 375 0 l 1
 375 62 l 1
 312 62 l 1
 312 125 l 1
 250 125 l 1
 250 188 l 1
 188 188 l 1
 188 0 l 1
 62 0 l 1
 62 438 l 1
EndSplineSet
EndChar

StartChar: uni006F
Encoding: 111 111 82
Width: 500
Flags: HW
LayerCount: 2
Fore
SplineSet
125 62 m 1
 62 62 l 1
 62 375 l 1
 125 375 l 1
 125 438 l 1
 438 438 l 1
 438 375 l 1
 500 375 l 1
 500 62 l 1
 438 62 l 1
 438 0 l 1
 125 0 l 1
 125 62 l 1
188 62 m 1
 375 62 l 1
 375 375 l 1
 188 375 l 1
 188 62 l 1
EndSplineSet
EndChar

StartChar: uni0070
Encoding: 112 112 83
Width: 500
Flags: HW
LayerCount: 2
Fore
SplineSet
62 438 m 1
 438 438 l 1
 438 375 l 1
 500 375 l 1
 500 188 l 1
 438 188 l 1
 438 125 l 1
 188 125 l 1
 188 0 l 1
 62 0 l 1
 62 438 l 1
188 188 m 1
 375 188 l 1
 375 375 l 1
 188 375 l 1
 188 188 l 1
EndSplineSet
EndChar

StartChar: uni0071
Encoding: 113 113 84
Width: 500
Flags: HW
LayerCount: 2
Fore
SplineSet
500 0 m 1
 438 0 l 1
 438 62 l 1
 500 62 l 1
 500 0 l 1
125 62 m 1
 62 62 l 1
 62 375 l 1
 125 375 l 1
 125 438 l 1
 438 438 l 1
 438 375 l 1
 500 375 l 1
 500 125 l 1
 438 125 l 1
 438 62 l 1
 375 62 l 1
 375 0 l 1
 125 0 l 1
 125 62 l 1
188 62 m 1
 312 62 l 1
 312 125 l 1
 250 125 l 1
 250 188 l 1
 375 188 l 1
 375 375 l 1
 188 375 l 1
 188 62 l 1
EndSplineSet
EndChar

StartChar: uni0072
Encoding: 114 114 85
Width: 500
Flags: HW
LayerCount: 2
Fore
SplineSet
500 0 m 1
 312 0 l 1
 312 62 l 1
 250 62 l 1
 250 125 l 1
 188 125 l 1
 188 0 l 1
 62 0 l 1
 62 438 l 1
 438 438 l 1
 438 375 l 1
 500 375 l 1
 500 188 l 1
 375 188 l 1
 375 125 l 1
 438 125 l 1
 438 62 l 1
 500 62 l 1
 500 0 l 1
188 188 m 1
 312 188 l 1
 312 250 l 1
 375 250 l 1
 375 375 l 1
 188 375 l 1
 188 188 l 1
EndSplineSet
EndChar

StartChar: uni0073
Encoding: 115 115 86
Width: 500
Flags: HW
LayerCount: 2
Fore
SplineSet
438 312 m 1
 312 312 l 1
 312 375 l 1
 188 375 l 1
 188 250 l 1
 438 250 l 1
 438 188 l 1
 500 188 l 1
 500 62 l 1
 438 62 l 1
 438 0 l 1
 125 0 l 1
 125 62 l 1
 62 62 l 1
 62 125 l 1
 188 125 l 1
 188 62 l 1
 375 62 l 1
 375 188 l 1
 125 188 l 1
 125 250 l 1
 62 250 l 1
 62 375 l 1
 125 375 l 1
 125 438 l 1
 375 438 l 1
 375 375 l 1
 438 375 l 1
 438 312 l 1
EndSplineSet
EndChar

StartChar: uni0074
Encoding: 116 116 87
Width: 500
Flags: HW
LayerCount: 2
Fore
SplineSet
500 375 m 1
 375 375 l 1
 375 0 l 1
 250 0 l 1
 250 375 l 1
 125 375 l 1
 125 438 l 1
 500 438 l 1
 500 375 l 1
EndSplineSet
EndChar

StartChar: uni0075
Encoding: 117 117 88
Width: 500
Flags: HW
LayerCount: 2
Fore
SplineSet
125 62 m 1
 62 62 l 1
 62 438 l 1
 188 438 l 1
 188 62 l 1
 375 62 l 1
 375 438 l 1
 500 438 l 1
 500 62 l 1
 438 62 l 1
 438 0 l 1
 125 0 l 1
 125 62 l 1
EndSplineSet
EndChar

StartChar: uni0076
Encoding: 118 118 89
Width: 500
Flags: HW
LayerCount: 2
Fore
SplineSet
312 62 m 1
 312 0 l 1
 250 0 l 1
 250 62 l 1
 188 62 l 1
 188 125 l 1
 125 125 l 1
 125 188 l 1
 62 188 l 1
 62 438 l 1
 188 438 l 1
 188 250 l 1
 250 250 l 1
 250 188 l 1
 312 188 l 1
 312 250 l 1
 375 250 l 1
 375 438 l 1
 500 438 l 1
 500 188 l 1
 438 188 l 1
 438 125 l 1
 375 125 l 1
 375 62 l 1
 312 62 l 1
EndSplineSet
EndChar

StartChar: uni0077
Encoding: 119 119 90
Width: 500
Flags: HW
LayerCount: 2
Fore
SplineSet
188 62 m 1
 188 0 l 1
 125 0 l 1
 125 125 l 1
 62 125 l 1
 62 438 l 1
 188 438 l 1
 188 250 l 1
 250 250 l 1
 250 312 l 1
 312 312 l 1
 312 250 l 1
 375 250 l 1
 375 438 l 1
 500 438 l 1
 500 125 l 1
 438 125 l 1
 438 0 l 1
 375 0 l 1
 375 62 l 1
 312 62 l 1
 312 125 l 1
 250 125 l 1
 250 62 l 1
 188 62 l 1
EndSplineSet
EndChar

StartChar: uni0078
Encoding: 120 120 91
Width: 500
Flags: HW
LayerCount: 2
Fore
SplineSet
188 62 m 1
 188 0 l 1
 62 0 l 1
 62 125 l 1
 125 125 l 1
 125 188 l 1
 188 188 l 1
 188 250 l 1
 125 250 l 1
 125 312 l 1
 62 312 l 1
 62 438 l 1
 188 438 l 1
 188 375 l 1
 250 375 l 1
 250 312 l 1
 312 312 l 1
 312 375 l 1
 375 375 l 1
 375 438 l 1
 500 438 l 1
 500 312 l 1
 438 312 l 1
 438 250 l 1
 375 250 l 1
 375 188 l 1
 438 188 l 1
 438 125 l 1
 500 125 l 1
 500 0 l 1
 375 0 l 1
 375 62 l 1
 312 62 l 1
 312 125 l 1
 250 125 l 1
 250 62 l 1
 188 62 l 1
EndSplineSet
EndChar

StartChar: uni0079
Encoding: 121 121 92
Width: 500
Flags: HW
LayerCount: 2
Fore
SplineSet
250 188 m 1
 188 188 l 1
 188 312 l 1
 125 312 l 1
 125 438 l 1
 250 438 l 1
 250 250 l 1
 375 250 l 1
 375 438 l 1
 500 438 l 1
 500 312 l 1
 438 312 l 1
 438 188 l 1
 375 188 l 1
 375 0 l 1
 250 0 l 1
 250 188 l 1
EndSplineSet
EndChar

StartChar: uni007A
Encoding: 122 122 93
Width: 500
Flags: HW
LayerCount: 2
Fore
SplineSet
500 0 m 1
 62 0 l 1
 62 125 l 1
 125 125 l 1
 125 188 l 1
 188 188 l 1
 188 250 l 1
 250 250 l 1
 250 312 l 1
 312 312 l 1
 312 375 l 1
 62 375 l 1
 62 438 l 1
 500 438 l 1
 500 312 l 1
 438 312 l 1
 438 250 l 1
 375 250 l 1
 375 188 l 1
 312 188 l 1
 312 125 l 1
 250 125 l 1
 250 62 l 1
 500 62 l 1
 500 0 l 1
EndSplineSet
EndChar

StartChar: uni007B
Encoding: 123 123 94
Width: 500
Flags: HW
LayerCount: 2
Fore
SplineSet
375 0 m 1
 250 0 l 1
 250 62 l 1
 188 62 l 1
 188 125 l 1
 125 125 l 1
 125 188 l 1
 188 188 l 1
 188 250 l 1
 125 250 l 1
 125 312 l 1
 188 312 l 1
 188 375 l 1
 250 375 l 1
 250 438 l 1
 375 438 l 1
 375 375 l 1
 312 375 l 1
 312 312 l 1
 250 312 l 1
 250 250 l 1
 312 250 l 1
 312 188 l 1
 250 188 l 1
 250 125 l 1
 312 125 l 1
 312 62 l 1
 375 62 l 1
 375 0 l 1
EndSplineSet
EndChar

StartChar: uni007C
Encoding: 124 124 95
Width: 500
Flags: HW
LayerCount: 2
Fore
SplineSet
188 438 m 1
 312 438 l 1
 312 0 l 1
 188 0 l 1
 188 438 l 1
EndSplineSet
EndChar

StartChar: uni007D
Encoding: 125 125 96
Width: 500
Flags: HW
LayerCount: 2
Fore
SplineSet
375 125 m 1
 312 125 l 1
 312 62 l 1
 250 62 l 1
 250 0 l 1
 125 0 l 1
 125 62 l 1
 188 62 l 1
 188 125 l 1
 250 125 l 1
 250 188 l 1
 188 188 l 1
 188 250 l 1
 250 250 l 1
 250 312 l 1
 188 312 l 1
 188 375 l 1
 125 375 l 1
 125 438 l 1
 250 438 l 1
 250 375 l 1
 312 375 l 1
 312 312 l 1
 375 312 l 1
 375 250 l 1
 312 250 l 1
 312 188 l 1
 375 188 l 1
 375 125 l 1
EndSplineSet
EndChar

StartChar: uni007E
Encoding: 126 126 97
Width: 500
Flags: HW
LayerCount: 2
Fore
SplineSet
375 188 m 1
 375 125 l 1
 250 125 l 1
 250 188 l 1
 188 188 l 1
 188 125 l 1
 62 125 l 1
 62 250 l 1
 125 250 l 1
 125 312 l 1
 250 312 l 1
 250 250 l 1
 312 250 l 1
 312 312 l 1
 438 312 l 1
 438 188 l 1
 375 188 l 1
EndSplineSet
EndChar

StartChar: uni00A1
Encoding: 161 161 98
Width: 500
Flags: HW
LayerCount: 2
Fore
SplineSet
188 250 m 1
 312 250 l 1
 312 0 l 1
 188 0 l 1
 188 250 l 1
188 438 m 1
 312 438 l 1
 312 312 l 1
 188 312 l 1
 188 438 l 1
EndSplineSet
EndChar

StartChar: uni00A9
Encoding: 169 169 99
Width: 1000
Flags: HW
LayerCount: 2
Fore
SplineSet
562 62 m 1
 375 62 l 1
 375 312 l 1
 562 312 l 1
 562 250 l 1
 438 250 l 1
 438 125 l 1
 562 125 l 1
 562 62 l 1
312 0 m 1
 625 0 l 1
 625 -62 l 1
 312 -62 l 1
 312 0 l 1
312 0 m 1
 250 0 l 1
 250 62 l 1
 312 62 l 1
 312 0 l 1
625 0 m 1
 625 62 l 1
 688 62 l 1
 688 0 l 1
 625 0 l 1
250 62 m 1
 188 62 l 1
 188 312 l 1
 250 312 l 1
 250 62 l 1
688 62 m 1
 688 312 l 1
 750 312 l 1
 750 62 l 1
 688 62 l 1
250 312 m 1
 250 375 l 1
 312 375 l 1
 312 312 l 1
 250 312 l 1
688 312 m 1
 625 312 l 1
 625 375 l 1
 688 375 l 1
 688 312 l 1
312 375 m 1
 312 438 l 1
 625 438 l 1
 625 375 l 1
 312 375 l 1
EndSplineSet
EndChar

StartChar: uni00BF
Encoding: 191 191 100
Width: 500
Flags: HW
LayerCount: 2
Fore
SplineSet
438 62 m 1
 375 62 l 1
 375 0 l 1
 125 0 l 1
 125 62 l 1
 375 62 l 1
 375 125 l 1
 438 125 l 1
 438 62 l 1
312 250 m 1
 250 250 l 1
 250 188 l 1
 125 188 l 1
 125 62 l 1
 62 62 l 1
 62 188 l 1
 125 188 l 1
 125 250 l 1
 250 250 l 1
 250 312 l 1
 312 312 l 1
 312 250 l 1
312 375 m 1
 250 375 l 1
 250 438 l 1
 312 438 l 1
 312 375 l 1
EndSplineSet
EndChar

StartChar: uni2018
Encoding: 8216 8216 101
Width: 500
Flags: HW
LayerCount: 2
Fore
SplineSet
188 438 m 1
 250 438 l 1
 250 375 l 1
 312 375 l 1
 312 250 l 1
 188 250 l 1
 188 438 l 1
EndSplineSet
EndChar

StartChar: uni2019
Encoding: 8217 8217 102
Width: 500
Flags: HW
LayerCount: 2
Fore
SplineSet
250 312 m 1
 188 312 l 1
 188 438 l 1
 312 438 l 1
 312 250 l 1
 250 250 l 1
 250 312 l 1
EndSplineSet
EndChar

StartChar: uni201C
Encoding: 8220 8220 103
Width: 500
Flags: HW
LayerCount: 2
Fore
SplineSet
125 438 m 1
 188 438 l 1
 188 375 l 1
 250 375 l 1
 250 250 l 1
 125 250 l 1
 125 438 l 1
312 438 m 1
 375 438 l 1
 375 375 l 1
 438 375 l 1
 438 250 l 1
 312 250 l 1
 312 438 l 1
EndSplineSet
EndChar

StartChar: uni201D
Encoding: 8221 8221 104
Width: 500
Flags: HW
LayerCount: 2
Fore
SplineSet
188 312 m 1
 125 312 l 1
 125 438 l 1
 250 438 l 1
 250 250 l 1
 188 250 l 1
 188 312 l 1
375 312 m 1
 312 312 l 1
 312 438 l 1
 438 438 l 1
 438 250 l 1
 375 250 l 1
 375 312 l 1
EndSplineSet
EndChar

StartChar: uni2026
Encoding: 8230 8230 105
Width: 500
Flags: HW
LayerCount: 2
Fore
SplineSet
0 125 m 1
 125 125 l 1
 125 0 l 1
 0 0 l 1
 0 125 l 1
188 125 m 1
 312 125 l 1
 312 0 l 1
 188 0 l 1
 188 125 l 1
375 125 m 1
 500 125 l 1
 500 0 l 1
 375 0 l 1
 375 125 l 1
EndSplineSet
EndChar

StartChar: uni203C
Encoding: 8252 8252 106
Width: 500
Flags: HW
LayerCount: 2
Fore
SplineSet
125 125 m 1
 250 125 l 1
 250 0 l 1
 125 0 l 1
 125 125 l 1
375 125 m 1
 500 125 l 1
 500 0 l 1
 375 0 l 1
 375 125 l 1
125 438 m 1
 250 438 l 1
 250 188 l 1
 125 188 l 1
 125 438 l 1
375 438 m 1
 500 438 l 1
 500 188 l 1
 375 188 l 1
 375 438 l 1
EndSplineSet
EndChar

StartChar: uni2122
Encoding: 8482 8482 107
Width: 1000
Flags: HW
LayerCount: 2
Fore
SplineSet
438 250 m 1
 375 250 l 1
 375 62 l 1
 250 62 l 1
 250 250 l 1
 188 250 l 1
 188 312 l 1
 438 312 l 1
 438 250 l 1
125 0 m 1
 875 0 l 1
 875 -62 l 1
 125 -62 l 1
 125 0 l 1
125 0 m 1
 62 0 l 1
 62 62 l 1
 125 62 l 1
 125 0 l 1
875 0 m 1
 875 62 l 1
 938 62 l 1
 938 0 l 1
 875 0 l 1
62 62 m 1
 0 62 l 1
 0 312 l 1
 62 312 l 1
 62 62 l 1
938 62 m 1
 938 312 l 1
 1000 312 l 1
 1000 62 l 1
 938 62 l 1
500 312 m 1
 625 312 l 1
 625 250 l 1
 688 250 l 1
 688 312 l 1
 812 312 l 1
 812 62 l 1
 750 62 l 1
 750 188 l 1
 688 188 l 1
 688 62 l 1
 625 62 l 1
 625 188 l 1
 562 188 l 1
 562 62 l 1
 500 62 l 1
 500 312 l 1
62 312 m 1
 62 375 l 1
 125 375 l 1
 125 312 l 1
 62 312 l 1
938 312 m 1
 875 312 l 1
 875 375 l 1
 938 375 l 1
 938 312 l 1
125 375 m 1
 125 438 l 1
 875 438 l 1
 875 375 l 1
 125 375 l 1
EndSplineSet
EndChar

StartChar: uni2160
Encoding: 8544 8544 108
Width: 500
Flags: HW
LayerCount: 2
Fore
SplineSet
375 0 m 1
 125 0 l 1
 125 62 l 1
 188 62 l 1
 188 375 l 1
 125 375 l 1
 125 438 l 1
 375 438 l 1
 375 375 l 1
 312 375 l 1
 312 62 l 1
 375 62 l 1
 375 0 l 1
EndSplineSet
EndChar

StartChar: uni2161
Encoding: 8545 8545 109
Width: 500
Flags: HW
LayerCount: 2
Fore
SplineSet
500 0 m 1
 0 0 l 1
 0 62 l 1
 62 62 l 1
 62 375 l 1
 0 375 l 1
 0 438 l 1
 500 438 l 1
 500 375 l 1
 438 375 l 1
 438 62 l 1
 500 62 l 1
 500 0 l 1
188 62 m 1
 312 62 l 1
 312 375 l 1
 188 375 l 1
 188 62 l 1
EndSplineSet
EndChar

StartChar: uniE021
Encoding: 57377 57377 110
Width: 500
Flags: HW
LayerCount: 2
Fore
SplineSet
312 0 m 1
 188 0 l 1
 188 62 l 1
 312 62 l 1
 312 0 l 1
188 438 m 1
 312 438 l 1
 312 125 l 1
 188 125 l 1
 188 438 l 1
EndSplineSet
EndChar

StartChar: uniE022
Encoding: 57378 57378 111
Width: 500
Flags: HW
LayerCount: 2
Fore
SplineSet
250 0 m 1
 125 0 l 1
 125 62 l 1
 250 62 l 1
 250 0 l 1
500 0 m 1
 375 0 l 1
 375 62 l 1
 500 62 l 1
 500 0 l 1
125 438 m 1
 250 438 l 1
 250 125 l 1
 125 125 l 1
 125 438 l 1
375 438 m 1
 500 438 l 1
 500 125 l 1
 375 125 l 1
 375 438 l 1
EndSplineSet
EndChar

StartChar: uniE025
Encoding: 57381 57381 112
Width: 500
Flags: HW
LayerCount: 2
Fore
SplineSet
438 375 m 1
 188 375 l 1
 188 312 l 1
 438 312 l 1
 438 250 l 1
 500 250 l 1
 500 62 l 1
 438 62 l 1
 438 0 l 1
 125 0 l 1
 125 62 l 1
 62 62 l 1
 62 125 l 1
 188 125 l 1
 188 62 l 1
 375 62 l 1
 375 188 l 1
 188 188 l 1
 188 250 l 1
 62 250 l 1
 62 438 l 1
 438 438 l 1
 438 375 l 1
EndSplineSet
EndChar

StartChar: uniE030
Encoding: 57392 57392 113
Width: 500
Flags: HW
LayerCount: 2
Fore
SplineSet
125 62 m 1
 62 62 l 1
 62 312 l 1
 125 312 l 1
 125 375 l 1
 375 375 l 1
 375 312 l 1
 438 312 l 1
 438 62 l 1
 375 62 l 1
 375 0 l 1
 125 0 l 1
 125 62 l 1
188 62 m 1
 312 62 l 1
 312 188 l 1
 250 188 l 1
 250 250 l 1
 312 250 l 1
 312 312 l 1
 188 312 l 1
 188 188 l 1
 250 188 l 1
 250 125 l 1
 188 125 l 1
 188 62 l 1
EndSplineSet
EndChar

StartChar: uniE031
Encoding: 57393 57393 114
Width: 500
Flags: HW
LayerCount: 2
Fore
SplineSet
438 0 m 1
 62 0 l 1
 62 62 l 1
 188 62 l 1
 188 250 l 1
 125 250 l 1
 125 312 l 1
 188 312 l 1
 188 375 l 1
 312 375 l 1
 312 62 l 1
 438 62 l 1
 438 0 l 1
EndSplineSet
EndChar

StartChar: uniE032
Encoding: 57394 57394 115
Width: 500
Flags: HW
LayerCount: 2
Fore
SplineSet
438 0 m 1
 62 0 l 1
 62 62 l 1
 125 62 l 1
 125 125 l 1
 188 125 l 1
 188 188 l 1
 250 188 l 1
 250 250 l 1
 312 250 l 1
 312 312 l 1
 188 312 l 1
 188 250 l 1
 62 250 l 1
 62 312 l 1
 125 312 l 1
 125 375 l 1
 375 375 l 1
 375 312 l 1
 438 312 l 1
 438 250 l 1
 375 250 l 1
 375 188 l 1
 312 188 l 1
 312 125 l 1
 250 125 l 1
 250 62 l 1
 438 62 l 1
 438 0 l 1
EndSplineSet
EndChar

StartChar: uniE033
Encoding: 57395 57395 116
Width: 500
Flags: HW
LayerCount: 2
Fore
SplineSet
438 62 m 1
 375 62 l 1
 375 0 l 1
 125 0 l 1
 125 62 l 1
 62 62 l 1
 62 125 l 1
 188 125 l 1
 188 62 l 1
 312 62 l 1
 312 125 l 1
 250 125 l 1
 250 188 l 1
 188 188 l 1
 188 250 l 1
 250 250 l 1
 250 312 l 1
 62 312 l 1
 62 375 l 1
 438 375 l 1
 438 312 l 1
 375 312 l 1
 375 250 l 1
 312 250 l 1
 312 188 l 1
 375 188 l 1
 375 125 l 1
 438 125 l 1
 438 62 l 1
EndSplineSet
EndChar

StartChar: uniE034
Encoding: 57396 57396 117
Width: 500
Flags: HW
LayerCount: 2
Fore
SplineSet
438 62 m 1
 375 62 l 1
 375 0 l 1
 250 0 l 1
 250 62 l 1
 62 62 l 1
 62 188 l 1
 125 188 l 1
 125 250 l 1
 188 250 l 1
 188 312 l 1
 250 312 l 1
 250 375 l 1
 375 375 l 1
 375 125 l 1
 438 125 l 1
 438 62 l 1
188 125 m 1
 250 125 l 1
 250 188 l 1
 188 188 l 1
 188 125 l 1
EndSplineSet
EndChar

StartChar: uniE035
Encoding: 57397 57397 118
Width: 500
Flags: HW
LayerCount: 2
Fore
SplineSet
438 312 m 1
 188 312 l 1
 188 250 l 1
 375 250 l 1
 375 188 l 1
 438 188 l 1
 438 62 l 1
 375 62 l 1
 375 0 l 1
 125 0 l 1
 125 62 l 1
 62 62 l 1
 62 125 l 1
 188 125 l 1
 188 62 l 1
 312 62 l 1
 312 188 l 1
 62 188 l 1
 62 375 l 1
 438 375 l 1
 438 312 l 1
EndSplineSet
EndChar

StartChar: uniE036
Encoding: 57398 57398 119
Width: 500
Flags: HW
LayerCount: 2
Fore
SplineSet
375 312 m 1
 188 312 l 1
 188 250 l 1
 375 250 l 1
 375 188 l 1
 438 188 l 1
 438 62 l 1
 375 62 l 1
 375 0 l 1
 125 0 l 1
 125 62 l 1
 62 62 l 1
 62 312 l 1
 125 312 l 1
 125 375 l 1
 375 375 l 1
 375 312 l 1
188 62 m 1
 312 62 l 1
 312 188 l 1
 188 188 l 1
 188 62 l 1
EndSplineSet
EndChar

StartChar: uniE037
Encoding: 57399 57399 120
Width: 500
Flags: HW
LayerCount: 2
Fore
SplineSet
125 125 m 1
 188 125 l 1
 188 188 l 1
 250 188 l 1
 250 250 l 1
 312 250 l 1
 312 312 l 1
 62 312 l 1
 62 375 l 1
 438 375 l 1
 438 250 l 1
 375 250 l 1
 375 188 l 1
 312 188 l 1
 312 125 l 1
 250 125 l 1
 250 0 l 1
 125 0 l 1
 125 125 l 1
EndSplineSet
EndChar

StartChar: uniE038
Encoding: 57400 57400 121
Width: 500
Flags: HW
LayerCount: 2
Fore
SplineSet
438 250 m 1
 375 250 l 1
 375 188 l 1
 438 188 l 1
 438 62 l 1
 375 62 l 1
 375 0 l 1
 125 0 l 1
 125 62 l 1
 62 62 l 1
 62 188 l 1
 125 188 l 1
 125 250 l 1
 62 250 l 1
 62 312 l 1
 125 312 l 1
 125 375 l 1
 375 375 l 1
 375 312 l 1
 438 312 l 1
 438 250 l 1
188 62 m 1
 312 62 l 1
 312 188 l 1
 188 188 l 1
 188 62 l 1
188 250 m 1
 312 250 l 1
 312 312 l 1
 188 312 l 1
 188 250 l 1
EndSplineSet
EndChar

StartChar: uniE039
Encoding: 57401 57401 122
Width: 500
Flags: HW
LayerCount: 2
Fore
SplineSet
312 62 m 1
 312 0 l 1
 125 0 l 1
 125 62 l 1
 250 62 l 1
 250 125 l 1
 312 125 l 1
 312 188 l 1
 125 188 l 1
 125 250 l 1
 62 250 l 1
 62 312 l 1
 125 312 l 1
 125 375 l 1
 375 375 l 1
 375 312 l 1
 438 312 l 1
 438 125 l 1
 375 125 l 1
 375 62 l 1
 312 62 l 1
188 250 m 1
 312 250 l 1
 312 312 l 1
 188 312 l 1
 188 250 l 1
EndSplineSet
EndChar

StartChar: uniE04D
Encoding: 57421 57421 123
Width: 500
Flags: HW
LayerCount: 2
Fore
SplineSet
62 375 m 1
 188 375 l 1
 188 312 l 1
 250 312 l 1
 250 250 l 1
 312 250 l 1
 312 312 l 1
 375 312 l 1
 375 375 l 1
 500 375 l 1
 500 0 l 1
 375 0 l 1
 375 188 l 1
 312 188 l 1
 312 125 l 1
 250 125 l 1
 250 188 l 1
 188 188 l 1
 188 0 l 1
 62 0 l 1
 62 375 l 1
EndSplineSet
EndChar

StartChar: uniE06D
Encoding: 57453 57453 124
Width: 500
Flags: HW
LayerCount: 2
Fore
SplineSet
62 312 m 1
 250 312 l 1
 250 250 l 1
 312 250 l 1
 312 0 l 1
 250 0 l 1
 250 250 l 1
 125 250 l 1
 125 0 l 1
 62 0 l 1
 62 312 l 1
438 250 m 1
 500 250 l 1
 500 0 l 1
 438 0 l 1
 438 250 l 1
312 250 m 1
 312 312 l 1
 438 312 l 1
 438 250 l 1
 312 250 l 1
EndSplineSet
EndChar
